<svg xmlns="http://www.w3.org/2000/svg" width="540" height="363" viewBox="0 0 540 363">
<g fill="none" fill-rule="evenodd" stroke="#FFF" stroke-width="2" opacity=".25">
<path d="M93.776 138.908c-.646.189-31.752 8.756-41.61 11.83-28.857 9-49.113 18.798-62.43 32.062-16.595 16.53-20.695 37.483-10.09 64.432 6.667 16.942 15.553 28.044 27.244 35.366 8.91 5.58 16.65 8.131 34.92 12.55 20.647 4.994 29.829 8.183 40.534 15.567 14.191 9.79 25.174 25.032 33.495 48.283 9.674 27.03 24.758 42.727 46.2 50.643 9.106 3.362 19.35 5.354 31.675 6.403 9.227.786 15.595.954 34.944 1.156 21.158.222 32.072.71 44.45 2.427 16.24 2.253 30.177 6.448 42.74 13.352 12.042 6.618 23.052 13.464 34.844 21.481 2.828 1.923 33.016 23.306 41.44 28.635 27.969 17.695 53.755 25.683 94.313 26.656 42.26 1.014 80.64-13.716 105.677-40.068 25.935-27.298 35.434-64.602 24.932-105.319-5.126-19.873-13.483-38.188-25.867-58.828-2.62-4.366-5.392-8.8-8.717-13.979a5066.25 5066.25 0 0 0-8.537-13.174c-7.045-10.884-11.183-17.681-14.738-24.504-14.445-27.727-13.11-48.09 8.884-70.04 24.876-24.826 24.166-61.844 1.301-90.785-23.65-29.934-63.397-42.007-103.522-26.924C423.9 81.902 390.261 86.047 360.863 80.1c-24.902-5.036-46.12-16.697-72.393-37.768C260.925 20.24 241.316 8.275 221.313 3.39c-24.582-6.004-47.677.177-71.067 20.964-14.212 12.63-27.573 21.334-41.622 27.933-7.305 3.43-26.878 10.837-28.87 11.739-9.715 4.398-14.502 9.367-17.071 18.976-2.514 9.4 4.775 17.168 21.667 26.84 2.48 1.42 10.706 5.932 11.33 6.282 8.971 5.024 12.963 8.072 13.752 11.463 1.02 4.384-3.924 7.899-15.656 11.321z"/>
<path d="M130.248 147.437c-.558.142-27.252 6.501-35.719 8.82-24.778 6.79-42.269 14.51-53.96 25.37-14.554 13.521-18.647 31.15-10.45 54.323 5.154 14.573 12.359 24.25 22.053 30.804 7.39 4.996 13.885 7.392 29.268 11.687 17.422 4.865 25.145 7.853 34.045 14.464 11.8 8.765 20.702 22.076 27.095 42.12 7.409 23.227 19.735 36.987 37.686 44.337 7.627 3.123 16.264 5.119 26.697 6.375 7.816.942 13.223 1.274 29.66 2.02 17.986.818 27.254 1.557 37.735 3.386 13.754 2.401 25.494 6.388 35.987 12.641 10.043 5.986 19.202 12.136 28.99 19.304 2.354 1.724 27.38 20.8 34.379 25.578 23.229 15.86 44.887 23.407 79.308 25.438 35.853 2.116 68.875-9.253 90.909-30.883 22.82-22.403 31.986-53.784 24.277-88.664-3.764-17.032-10.32-32.84-20.228-50.744-2.097-3.788-4.321-7.64-6.994-12.141a4312.282 4312.282 0 0 0-6.866-11.455c-5.67-9.468-8.988-15.374-11.81-21.287-11.481-24.055-9.734-41.399 9.665-59.454 21.823-20.313 22.317-51.723 3.78-76.95C516.577 96.424 483.213 85 448.72 96.612c-36.161 12.171-64.908 14.698-89.752 8.762-21.047-5.028-38.758-15.584-60.483-34.294-22.744-19.588-39.045-30.334-55.877-35.074-20.67-5.82-40.436-1.264-60.9 15.684-12.466 10.325-24.095 17.336-36.246 22.534-6.319 2.703-23.179 8.419-24.892 9.124-8.35 3.434-12.534 7.485-14.99 15.532-2.386 7.824 3.543 14.603 17.559 23.292 2.065 1.28 8.923 5.361 9.445 5.679 7.522 4.564 10.836 7.285 11.418 10.253.76 3.874-3.606 6.753-13.754 9.333z"/>
</g>
</svg>
